<svg id="Layer_1" data-name="Layer 1" xmlns="http://www.w3.org/2000/svg" viewBox="0 0 138.39 117.09"><defs><style>.cls-1{fill:#8caedc;}.cls-2{fill:#a9c0e4;}.cls-3{fill:#ccd9ef;}.cls-4{fill:#ecf0f9;}</style></defs><title>brurberglogo</title><path class="cls-1" d="M92.12,40.33a8,8,0,0,1-1-4.77,8.06,8.06,0,0,0-1.28.84h0a8,8,0,0,0-1.24,11.31l21.78,27.13a23.68,23.68,0,0,1-1.81-6.18Z" transform="translate(-58.57 -18.09)"/><path class="cls-2" d="M108.23,64.87h0V63h0V36.1L106,32.3a8,8,0,0,0-13.92,8.06L108.5,68.69a24.11,24.11,0,0,1-.29-3.56" transform="translate(-58.57 -18.09)"/><path class="cls-3" d="M108.24,63V26.16a8,8,0,0,1,.56-2.93,8,8,0,0,0-10.59,10l10,30.19V63h0Z" transform="translate(-58.57 -18.09)"/><path class="cls-4" d="M130.33,42.06a21.23,21.23,0,0,0-6,.89V26.13a8,8,0,0,0-16.08,0V63h0v2.17a24.11,24.11,0,0,0,.29,3.56,23.68,23.68,0,0,0,1.81,6.18,22,22,0,0,0,20,13.33c12.21,0,22.11-10.33,22.11-23.07S142.54,42.06,130.33,42.06Zm0,32.17a8.31,8.31,0,0,1-4.56-1.37,8.91,8.91,0,0,1-1.16-.9,9,9,0,0,1-1.06-1.14,9.21,9.21,0,0,1-1.36-2.45,9.4,9.4,0,0,1-.58-3.24,9.39,9.39,0,0,1,2.15-6c0.17-.21.35-0.41,0.54-0.6a8.5,8.5,0,0,1,6-2.53A9.11,9.11,0,0,1,130.33,74.23Z" transform="translate(-58.57 -18.09)"/><path class="cls-4" d="M63.74,94.27c1.85,0,3.36,0,4.9.91s2.55,2.38,2.55,5.49c0,5.53-3.67,5.91-3.67,5.91s4.72,0.38,4.72,6.75c0,3-1,4.79-2.59,5.91-1.82,1.33-4.09,1.33-5.6,1.33H58.57V94.27h5.18Zm-2.45,11.37H64a4.76,4.76,0,0,0,2.76-.56c0.91-.59,1.57-1.75,1.57-4.06s-0.63-3.32-1.5-3.88A5.25,5.25,0,0,0,64,96.61H61.29v9Zm0,12.6h3a5.21,5.21,0,0,0,3.53-.87c0.91-.74,1.54-2,1.54-4.13s-0.67-3.67-2-4.44a7,7,0,0,0-3.5-.73H61.29v10.18Z" transform="translate(-58.57 -18.09)"/><path class="cls-4" d="M82.56,109.24H79v11.34H76.3V94.27h5.77A8.21,8.21,0,0,1,87,95.39c1.5,1,2.48,2.87,2.48,6.12,0,4.34-1.75,6.47-4.13,7.31l5.21,11.76H87.46L82.6,109.24h0ZM79,106.86h3.18a5.14,5.14,0,0,0,2.87-.7c0.8-.59,1.5-2,1.5-4.48,0-1.92-.42-3.53-1.47-4.34a5.06,5.06,0,0,0-3-.73H79v10.25Z" transform="translate(-58.57 -18.09)"/><path class="cls-4" d="M96.77,94.27v18.65c0,3.32.94,5.7,4.65,5.7s4.65-2.38,4.65-5.7V94.27h2.55v18.12c0,2.2-.07,4.48-1.54,6.26a7.28,7.28,0,0,1-5.81,2.31,7.19,7.19,0,0,1-5.77-2.27c-1.43-1.75-1.54-4-1.54-6.26V94.27h2.8Z" transform="translate(-58.57 -18.09)"/><path class="cls-4" d="M120.21,109.24h-3.53v11.34h-2.73V94.27h5.77a8.21,8.21,0,0,1,4.9,1.12c1.5,1,2.48,2.87,2.48,6.12,0,4.34-1.75,6.47-4.13,7.31l5.21,11.76H125.1l-4.86-11.34h0Zm-3.53-2.38h3.18a5.14,5.14,0,0,0,2.87-.7c0.8-.59,1.5-2,1.5-4.48,0-1.92-.42-3.53-1.47-4.34a5.06,5.06,0,0,0-3-.73h-3.11v10.25Z" transform="translate(-58.57 -18.09)"/><path class="cls-4" d="M136.93,94.27c1.85,0,3.36,0,4.9.91s2.55,2.38,2.55,5.49c0,5.53-3.67,5.91-3.67,5.91s4.72,0.38,4.72,6.75c0,3-1,4.79-2.59,5.91-1.82,1.33-4.09,1.33-5.6,1.33h-5.49V94.27h5.18Zm-2.45,11.37h2.69a4.77,4.77,0,0,0,2.76-.56c0.91-.59,1.57-1.75,1.57-4.06s-0.63-3.32-1.5-3.88a5.25,5.25,0,0,0-2.87-.52h-2.66v9Zm0,12.6h3a5.2,5.2,0,0,0,3.53-.87c0.91-.74,1.54-2,1.54-4.13s-0.67-3.67-2-4.44a7,7,0,0,0-3.5-.73h-2.62v10.18Z" transform="translate(-58.57 -18.09)"/><path class="cls-4" d="M160.58,94.27v2.41h-8.29v9h7v2.42h-7v10.11h8.64v2.41H149.49V94.27h11.09Z" transform="translate(-58.57 -18.09)"/><path class="cls-4" d="M171.24,109.24h-3.53v11.34H165V94.27h5.77a8.21,8.21,0,0,1,4.9,1.12c1.5,1,2.48,2.87,2.48,6.12,0,4.34-1.75,6.47-4.13,7.31l5.21,11.76h-3.08l-4.86-11.34h0Zm-3.53-2.38h3.18a5.14,5.14,0,0,0,2.87-.7c0.8-.59,1.5-2,1.5-4.48,0-1.92-.42-3.53-1.47-4.34a5.06,5.06,0,0,0-3-.73h-3.11v10.25Z" transform="translate(-58.57 -18.09)"/><path class="cls-4" d="M197,106.86v13a18,18,0,0,1-5.56.91c-6.89,0-9.83-4.55-9.83-13.12,0-8.89,3.18-13.65,10.22-13.65a16.53,16.53,0,0,1,4.65.67v2.52h-0.21a11.55,11.55,0,0,0-4.34-.84c-4.79,0-7.45,3.11-7.45,11,0,7.73,2.55,11.09,6.89,11.09a9.42,9.42,0,0,0,3-.52v-8.71h-3.88v-2.38H197Z" transform="translate(-58.57 -18.09)"/><path class="cls-4" d="M59.74,123.93v9.87h5.5v1.06H58.57V123.93h1.17Z" transform="translate(-58.57 -18.09)"/><path class="cls-4" d="M71.65,123.93l4,10.93H74.4l-1.21-3.35h-4.7l-1.21,3.35H66l4-10.93h1.6ZM70.83,125l-2,5.48h3.91Z" transform="translate(-58.57 -18.09)"/><path class="cls-4" d="M77.85,123.93v5.59l5.57-5.59H85l-4.33,4.3,4.59,6.63H83.74l-3.93-5.8-2,1.94v3.86H76.68V123.93h1.17Z" transform="translate(-58.57 -18.09)"/><path class="cls-4" d="M87.78,123.93v5.59l5.57-5.59h1.53l-4.33,4.3,4.59,6.63H93.68l-3.93-5.8-2,1.94v3.86H86.61V123.93h1.17Z" transform="translate(-58.57 -18.09)"/><path class="cls-4" d="M110,129.41a7.84,7.84,0,0,1-.32,2.32,5.27,5.27,0,0,1-1,1.82,4.3,4.3,0,0,1-1.54,1.18,5.4,5.4,0,0,1-4.18,0,4.26,4.26,0,0,1-1.54-1.18,5.29,5.29,0,0,1-.95-1.82,8.4,8.4,0,0,1,0-4.63,5.29,5.29,0,0,1,.95-1.82A4.26,4.26,0,0,1,103,124.1a5.4,5.4,0,0,1,4.18,0,4.3,4.3,0,0,1,1.54,1.18,5.27,5.27,0,0,1,1,1.82A7.81,7.81,0,0,1,110,129.41Zm-1.17,0a6.3,6.3,0,0,0-.29-2,4.45,4.45,0,0,0-.8-1.48,3.48,3.48,0,0,0-1.19-.92,3.43,3.43,0,0,0-4.12.92,4.43,4.43,0,0,0-.79,1.48,7,7,0,0,0,0,4,4.46,4.46,0,0,0,.79,1.48,3.47,3.47,0,0,0,4.12.93,3.45,3.45,0,0,0,1.19-.93,4.48,4.48,0,0,0,.8-1.48A6.29,6.29,0,0,0,108.8,129.41Z" transform="translate(-58.57 -18.09)"/><path class="cls-4" d="M112.3,129.41a6.13,6.13,0,0,0,.3,2,4.66,4.66,0,0,0,.81,1.49,3.48,3.48,0,0,0,1.2.93,3.38,3.38,0,0,0,1.45.32,2.67,2.67,0,0,0,.88-0.15,3.45,3.45,0,0,0,.83-0.43,4.26,4.26,0,0,0,.73-0.65,4.6,4.6,0,0,0,1-1.74,3.83,3.83,0,0,0,.16-1h-3.39v-1h4.5v5.71h-0.71L119.71,133a5,5,0,0,1-.68.82,5.58,5.58,0,0,1-.88.71,4.89,4.89,0,0,1-1,.5,3.09,3.09,0,0,1-1,.19,4.67,4.67,0,0,1-2.06-.44,4.6,4.6,0,0,1-1.56-1.22,5.59,5.59,0,0,1-1-1.83,7.23,7.23,0,0,1-.35-2.28,6.93,6.93,0,0,1,.15-1.42,6.62,6.62,0,0,1,.43-1.35,6,6,0,0,1,.7-1.19,4.84,4.84,0,0,1,1-.95,4.46,4.46,0,0,1,1.21-.63,4.35,4.35,0,0,1,1.43-.23,5.42,5.42,0,0,1,1.75.26,4.29,4.29,0,0,1,1.33.72,4.23,4.23,0,0,1,1,1.09,5.44,5.44,0,0,1,.59,1.39h-1.23a3.68,3.68,0,0,0-1.26-1.82,3.56,3.56,0,0,0-2.14-.6,3,3,0,0,0-1.5.38,3.8,3.8,0,0,0-1.17,1,4.93,4.93,0,0,0-.77,1.51A5.93,5.93,0,0,0,112.3,129.41Z" transform="translate(-58.57 -18.09)"/><path class="cls-4" d="M133.71,127a3.33,3.33,0,0,1-.1.79,2.89,2.89,0,0,1-.29.74,3,3,0,0,1-.48.65,2.78,2.78,0,0,1-.67.5,1.7,1.7,0,0,1,.69.33,1.76,1.76,0,0,1,.42.52,2,2,0,0,1,.21.64,4.41,4.41,0,0,1,.06.7v1.66a2.44,2.44,0,0,0,.1.69,3,3,0,0,0,.26.61h-1.27a1.18,1.18,0,0,1-.13-0.28,2,2,0,0,1-.07-0.33c0-.11,0-0.22,0-0.33s0-.21,0-0.29v-1.74a1.85,1.85,0,0,0-.11-0.62,1.51,1.51,0,0,0-.35-0.55,1.76,1.76,0,0,0-.62-0.39,2.53,2.53,0,0,0-.94-0.15h-3.3v4.69h-1.17V123.93h4.47a3.41,3.41,0,0,1,1.41.28,3.22,3.22,0,0,1,1,.72,3.06,3.06,0,0,1,.64,1A3,3,0,0,1,133.71,127Zm-6.61,2.11h3.3a2.06,2.06,0,0,0,.82-0.17,2.24,2.24,0,0,0,.68-0.45,2.1,2.1,0,0,0,.63-1.51,2,2,0,0,0-.16-0.82,1.94,1.94,0,0,0-.45-0.65,2,2,0,0,0-.68-0.42,2.32,2.32,0,0,0-.85-0.15h-3.3v4.16Z" transform="translate(-58.57 -18.09)"/><path class="cls-4" d="M142.8,123.93V125h-6.13v3.69h5.77v1.06h-5.77v4.07h6.4v1.06H135.5V123.93h7.3Z" transform="translate(-58.57 -18.09)"/><path class="cls-4" d="M145.89,123.93v5.59l5.57-5.59H153l-4.33,4.3,4.59,6.63h-1.47l-3.93-5.8-2,1.94v3.86h-1.17V123.93h1.17Z" transform="translate(-58.57 -18.09)"/><path class="cls-4" d="M158.53,133.34l3.14-9.42h1.27l-3.65,10.93h-1.46l-3.71-10.93h1.28Z" transform="translate(-58.57 -18.09)"/><path class="cls-4" d="M165.38,123.93v10.93h-1.17V123.93h1.17Z" transform="translate(-58.57 -18.09)"/><path class="cls-4" d="M168.16,131.45a3.08,3.08,0,0,0,.27,1.07,2.75,2.75,0,0,0,.6.85,2.68,2.68,0,0,0,.89.56,3.09,3.09,0,0,0,1.13.2,4.59,4.59,0,0,0,1-.12,2.6,2.6,0,0,0,.88-0.38,1.92,1.92,0,0,0,.61-0.68,2.11,2.11,0,0,0,.22-1,1.37,1.37,0,0,0-.25-0.83,2.21,2.21,0,0,0-.65-0.59,4.78,4.78,0,0,0-.91-0.42l-1-.34-0.88-.28a8.7,8.7,0,0,1-.85-0.33,4.74,4.74,0,0,1-.77-0.43,3,3,0,0,1-.62-0.57,2.52,2.52,0,0,1-.42-0.75,2.88,2.88,0,0,1-.15-1,2.64,2.64,0,0,1,.26-1.2,2.43,2.43,0,0,1,.75-0.88,3.5,3.5,0,0,1,1.15-.53,5.62,5.62,0,0,1,1.47-.18,4.45,4.45,0,0,1,1.77.31,3.24,3.24,0,0,1,1.14.79,3,3,0,0,1,.62,1.05,4.45,4.45,0,0,1,.22,1.11h-1.2a2.47,2.47,0,0,0-.26-1,2.22,2.22,0,0,0-.56-0.7,2.37,2.37,0,0,0-.79-0.42,3.08,3.08,0,0,0-.95-0.14,4.23,4.23,0,0,0-.9.1,2.6,2.6,0,0,0-.79.3,1.66,1.66,0,0,0-.56.54,1.5,1.5,0,0,0-.21.82,1.46,1.46,0,0,0,.24.85,2.15,2.15,0,0,0,.65.6,4.76,4.76,0,0,0,.93.44q0.52,0.19,1.08.35l0.88,0.29a8.4,8.4,0,0,1,.85.33,5.13,5.13,0,0,1,.76.42,2.75,2.75,0,0,1,.61.55,2.46,2.46,0,0,1,.4.73,2.82,2.82,0,0,1,.15.94,3.17,3.17,0,0,1-.29,1.4,2.83,2.83,0,0,1-.82,1,3.61,3.61,0,0,1-1.25.61,5.76,5.76,0,0,1-1.57.2,4.44,4.44,0,0,1-1.5-.26,4.14,4.14,0,0,1-1.3-.74,3.73,3.73,0,0,1-.92-1.17,3.61,3.61,0,0,1-.38-1.55h1.21Z" transform="translate(-58.57 -18.09)"/><path class="cls-4" d="M178.25,123.93v10.93h-1.17V123.93h1.17Z" transform="translate(-58.57 -18.09)"/><path class="cls-4" d="M188.37,123.94V125h-3.62v9.88h-1.17V125H180v-1.06h8.41Z" transform="translate(-58.57 -18.09)"/><path class="cls-4" d="M193,123.94l4,10.93h-1.23l-1.21-3.35h-4.7l-1.21,3.35h-1.25l4-10.93H193ZM192.16,125l-2,5.48h3.91Z" transform="translate(-58.57 -18.09)"/></svg>